<svg width="309" height="414" viewBox="0 0 309 414" fill="none" xmlns="http://www.w3.org/2000/svg">
<path d="M32.499 3.00195L101.499 48.4686V344.002H32.499V3.00195Z" fill="url(#paint0_linear_99_213)"/>
<path d="M261.022 274.986L270.836 202.989L144.499 142.502L137.784 211.502L261.022 274.986Z" fill="url(#paint1_linear_99_213)"/>
<path d="M271 203.001L258.999 291.002L71.4737 400.72L32.5114 343.773L271 203.001Z" fill="url(#paint2_linear_99_213)"/>
<path d="M261.007 136.986L270.82 64.9887L137.768 0.000454484L137.768 73.502L261.007 136.986Z" fill="url(#paint3_linear_99_213)"/>
<path d="M270.985 65.0012L258.983 153.002L32.4957 275.502L32.4957 205.773L270.985 65.0012Z" fill="url(#paint4_linear_99_213)"/>
<defs>
<linearGradient id="paint0_linear_99_213" x1="126.999" y1="454.381" x2="73.5079" y2="11.5492" gradientUnits="userSpaceOnUse">
<stop stop-color="#030DF9"/>
<stop offset="1" stop-color="#3FF8ED"/>
</linearGradient>
<linearGradient id="paint1_linear_99_213" x1="140.999" y1="155.502" x2="259.999" y2="256.502" gradientUnits="userSpaceOnUse">
<stop stop-color="#175AF5"/>
<stop offset="1" stop-color="#3EF5ED"/>
</linearGradient>
<linearGradient id="paint2_linear_99_213" x1="280.81" y1="217.34" x2="52.7603" y2="373.369" gradientUnits="userSpaceOnUse">
<stop stop-color="#1C6EF4"/>
<stop offset="1" stop-color="#3AE5EE"/>
</linearGradient>
<linearGradient id="paint3_linear_99_213" x1="140.983" y1="17.502" x2="259.983" y2="118.502" gradientUnits="userSpaceOnUse">
<stop stop-color="#175AF5"/>
<stop offset="1" stop-color="#3EF5ED"/>
</linearGradient>
<linearGradient id="paint4_linear_99_213" x1="280.795" y1="79.3397" x2="52.7447" y2="235.369" gradientUnits="userSpaceOnUse">
<stop stop-color="#1C6EF4"/>
<stop offset="1" stop-color="#3AE5EE"/>
</linearGradient>
</defs>
</svg>
