<svg width="70" height="50" xmlns="http://www.w3.org/2000/svg" xmlns:xlink="http://www.w3.org/1999/xlink" xmlns:figma="http://www.figma.com/figma/ns" class="m-b-sm"><g transform="translate(193 193)" figma:type="canvas"><mask id="a"><path d="M-193-193h70v50h-70v-50z" fill="#FFF"/></mask><g mask="url(#a)" figma:type="frame"><g figma:type="vector" transform="translate(-193 -193)"><use xlink:href="#path0_fill"/><use xlink:href="#path1_fill"/></g></g></g><defs><path fill="#3BB75E" id="path0_fill" d="M10.688 0A4.695 4.695 0 0 0 6 4.688V6H4.687A4.698 4.698 0 0 0 0 10.688v34.624A4.7 4.7 0 0 0 4.688 50H59.28c2.582 0 4.72-2.097 4.72-4.688V44h1.313C67.894 44 70 41.864 70 39.28V4.688A4.696 4.696 0 0 0 65.312 0H10.688zm0 2H65.31C66.823 2 68 3.18 68 4.688V10H8V4.687A2.658 2.658 0 0 1 10.688 2zm-6 6H6v31.28C6 41.865 8.105 44 10.688 44H62v1.313c0 1.5-1.208 2.687-2.72 2.687H4.688A2.655 2.655 0 0 1 2 45.312V10.688A2.655 2.655 0 0 1 4.688 8zM8 10h60v29.28c0 1.51-1.18 2.72-2.688 2.72H10.688C9.178 42 8 40.79 8 39.28V10z"/><path fill="#3BB75E" id="path1_fill" d="M37 32c4.96 0 9-4.145 9-9.232a1 1 0 0 0-.992-1.018c-.55 0-.992.452-.992 1.018 0 3.956-3.16 7.197-7.016 7.197-3.857 0-7.016-3.24-7.016-7.197S33.144 15.57 37 15.57c1.543 0 3.05.528 4.26 1.507l-3.452.64c-.55.114-.882.642-.808 1.207.074.49.514.83.992.83h.184l5.51-1.056c.55-.113.88-.64.808-1.206l-1.03-5.653a1.032 1.032 0 0 0-1.174-.83c-.55.114-.882.64-.808 1.206l.514 2.902A8.762 8.762 0 0 0 37 13.535c-4.96 0-9 4.145-9 9.233C28 27.855 32.04 32 37 32z"/></defs></svg>