<svg xmlns="http://www.w3.org/2000/svg" width="26" height="26"><g fill="#fff" transform="translate(5 -1031.362)"><circle cx="8" cy="1044.362" r="13" fill="#239fdb" fill-rule="evenodd"/><path style="line-height:normal;text-indent:0;text-align:start;text-decoration-line:none;text-decoration-style:solid;text-decoration-color:#000;text-transform:none;block-progression:tb;isolation:auto;mix-blend-mode:normal" d="M8.43 1037.329a.469.469 0 0 0-.234.086l-6.566 4.69a.469.469 0 0 0 .273.85h.469v6.563h-.938a.469.469 0 0 0-.469.469v1.875a.469.469 0 0 0 .006.075.469.469 0 0 0 .463.394H15.5a.469.469 0 0 0 .463-.396.469.469 0 0 0 .006-.073v-1.875a.469.469 0 0 0-.469-.469h-.963v-6.563h.494a.469.469 0 0 0 .273-.85l-6.564-4.69a.469.469 0 0 0-.31-.086zm.037 1.046 5.099 3.642H3.366l5.101-3.642zm0 1.391a.469.469 0 0 0-.469.47.469.469 0 0 0 .47.468.469.469 0 0 0 .468-.469.469.469 0 0 0-.469-.469zm-5.157 3.189h.91v6.563h-.91v-6.563zm1.848 0h1.928v6.563H5.158v-6.563zm2.866 0h.912v6.563h-.912v-6.563zm1.85 0h1.875v6.563H9.874v-6.563zm2.813 0h.91v6.563h-.91v-6.563zm-10.784 7.5h13.128v.938H1.903v-.937z" color="#000" font-family="sans-serif" font-weight="400" overflow="visible" transform="translate(-1.03 -69.863) scale(1.06642)"/></g></svg>