<svg width="144" height="140" viewBox="0 0 144 140" fill="none" xmlns="http://www.w3.org/2000/svg">
<path d="M0.0117468 127.131C0.0117468 125.463 0.0117468 123.781 0.0117468 122.113C0.0117468 89.0024 -0.0146835 55.8784 0.0117468 22.7678C0.024962 7.42025 6.98937 0.173548 22.1208 0.146857C45.2209 0.0934742 68.3475 -0.29355 91.4344 0.493844C132.547 1.92183 156.043 44.8282 135.837 80.9149C126.97 96.7696 117.891 112.504 108.799 128.239C102.654 138.875 91.3155 142.305 81.8666 136.566C72.6292 130.961 70.4223 119.884 76.5013 109.194C84.2718 95.5151 92.1613 81.9025 99.9054 68.2231C108.548 52.9557 104.465 36.1135 90.1922 27.8124C76.6466 19.9385 60.4977 24.863 51.8417 39.8236C36.1949 66.8485 20.7332 93.9937 5.17889 121.085C3.92344 123.274 2.57549 125.423 1.28041 127.585C0.857519 127.425 0.434633 127.278 0.0117468 127.131Z" fill="#3F88C5"/>
</svg>
