<svg width="65" height="65" viewBox="0 0 65 65" fill="none" xmlns="http://www.w3.org/2000/svg">
<circle cx="32.5" cy="32.5" r="32.5" fill="#A90A0A"/>
<path d="M23.2167 45C22.9802 45 22.7586 44.9113 22.5517 44.734C22.3743 44.5567 22.2857 44.335 22.2857 44.069C22.2857 43.803 22.3891 43.537 22.596 43.271L30.31 33.2073L23.0837 23.6756C22.8768 23.4391 22.7733 23.1731 22.7733 22.8776C22.7733 22.6116 22.862 22.3899 23.0393 22.2126C23.2167 22.0352 23.4383 21.9466 23.7043 21.9466H25.9654C26.4087 21.9466 26.7929 22.183 27.118 22.6559L33.0144 30.3256L38.9107 22.7002C39.0881 22.4638 39.2506 22.2865 39.3984 22.1682C39.5758 22.0205 39.7974 21.9466 40.0634 21.9466H42.2358C42.5018 21.9466 42.7234 22.0352 42.9008 22.2126C43.0781 22.3899 43.1668 22.6116 43.1668 22.8776C43.1668 23.1731 43.0633 23.4391 42.8564 23.6756L35.5414 33.2959L43.2554 43.271C43.4623 43.537 43.5658 43.803 43.5658 44.069C43.5658 44.335 43.4771 44.5567 43.2998 44.734C43.1224 44.9113 42.9008 45 42.6348 45H40.2851C39.8418 45 39.4575 44.7783 39.1324 44.335L32.9257 36.222L26.6304 44.335C26.453 44.5419 26.2757 44.7044 26.0984 44.8227C25.9506 44.9409 25.7437 45 25.4777 45H23.2167Z" fill="white"/>
</svg>
