<svg width="18" height="18" viewBox="0 0 18 18" fill="none" xmlns="http://www.w3.org/2000/svg">
<path d="M4.56837 4.3627C6.45243 2.99385 7.39446 2.30942 8.47031 2.26995C8.55661 2.26679 8.643 2.26679 8.7293 2.26995C9.80515 2.30942 10.7472 2.99385 12.6312 4.3627C14.5153 5.73155 15.4573 6.41597 15.8273 7.42697C15.857 7.50807 15.8837 7.59023 15.9074 7.67329C16.2023 8.70867 15.8425 9.8161 15.1228 12.0309L13.9069 15.773C13.7137 16.3676 13.1597 16.7702 12.5345 16.7702C11.7375 16.7702 11.0914 16.1241 11.0914 15.3271V13.385C11.0914 12.6372 10.4851 12.0309 9.7373 12.0309H7.46231C6.71448 12.0309 6.10824 12.6372 6.10824 13.385V15.3271C6.10824 16.1241 5.46214 16.7702 4.66515 16.7702C4.03996 16.7702 3.48587 16.3676 3.29268 15.773L2.0768 12.0309C1.35716 9.8161 0.997332 8.70867 1.29225 7.67329C1.31591 7.59023 1.34261 7.50807 1.37229 7.42697C1.74228 6.41597 2.68431 5.73155 4.56837 4.3627Z" fill="#2D264B"/>
</svg>
