<svg width="17" height="16" viewBox="0 0 17 16" fill="none" xmlns="http://www.w3.org/2000/svg">
<path fill-rule="evenodd" clip-rule="evenodd" d="M8.6663 0.30694C8.56668 0.303286 8.46697 0.303286 8.36735 0.30694C7.70975 0.331064 7.1176 0.554676 6.46835 0.926911C5.83564 1.28966 5.10723 1.81888 4.18301 2.49038L4.13277 2.52688C3.20853 3.19837 2.48011 3.7276 1.9396 4.21724C1.38495 4.71969 0.9893 5.21376 0.763146 5.83172C0.728888 5.92533 0.698074 6.02017 0.670766 6.11604C0.490499 6.74891 0.520184 7.38117 0.673569 8.11368C0.823044 8.82751 1.10128 9.68381 1.45431 10.7703L2.68428 14.5558C2.94938 15.3717 3.70972 15.9241 4.56761 15.9241C5.66128 15.9241 6.54787 15.0375 6.54787 13.9438V11.9946C6.54787 11.5377 6.91824 11.1673 7.37512 11.1673H9.65853C10.1154 11.1673 10.4858 11.5377 10.4858 11.9946V13.9438C10.4858 15.0375 11.3724 15.9241 12.466 15.9241C13.3239 15.9241 14.0843 15.3717 14.3494 14.5558L15.5794 10.7703C15.9324 9.68379 16.2106 8.8275 16.3601 8.11367C16.5135 7.38117 16.5432 6.74891 16.3629 6.11604C16.3356 6.02017 16.3048 5.92533 16.2705 5.83172C16.0444 5.21376 15.6487 4.71969 15.0941 4.21724C14.5535 3.72759 13.8251 3.19837 12.9009 2.52688L12.8506 2.49037C11.9264 1.81888 11.198 1.28965 10.5653 0.926911C9.91605 0.554676 9.3239 0.331064 8.6663 0.30694ZM8.40634 1.36987C8.47997 1.36717 8.55368 1.36717 8.62731 1.36987C9.04953 1.38536 9.47005 1.52503 10.0363 1.84966C10.6133 2.18049 11.2957 2.67539 12.2506 3.36914C13.2054 4.06289 13.887 4.55896 14.3799 5.00553C14.8637 5.44372 15.1264 5.8005 15.2716 6.19727C15.297 6.26645 15.3197 6.33655 15.3399 6.40741C15.4557 6.81376 15.4528 7.25686 15.319 7.89568C15.1827 8.54671 14.9229 9.34864 14.5582 10.4712L13.3378 14.2271C13.2151 14.6047 12.8631 14.8604 12.466 14.8604C11.9598 14.8604 11.5494 14.4501 11.5494 13.9438V11.9946C11.5494 10.9503 10.7028 10.1037 9.65853 10.1037H7.37512C6.33081 10.1037 5.48422 10.9503 5.48422 11.9946V13.9438C5.48422 14.4501 5.07384 14.8604 4.56761 14.8604C4.17051 14.8604 3.81858 14.6047 3.69587 14.2271L2.47549 10.4712C2.11077 9.34864 1.85096 8.54671 1.71464 7.89568C1.58087 7.25686 1.57798 6.81376 1.69372 6.40741C1.71391 6.33655 1.73668 6.26646 1.762 6.19727C1.90721 5.8005 2.16999 5.44372 2.6537 5.00553C3.14666 4.55896 3.82821 4.06289 4.78308 3.36914C5.73794 2.67539 6.42034 2.18049 6.99738 1.84966C7.5636 1.52503 7.98412 1.38536 8.40634 1.36987Z" fill="#2D264B"/>
</svg>
