<svg xmlns="http://www.w3.org/2000/svg" viewBox="0 0 24 24"><path fill="#2D98D4" d="M0 6v13c0 1.103.897 2 2 2h20c1.103 0 2-.897 2-2V6"/><path fill="#0377BE" d="M22 3H2a2 2 0 0 0-2 2v2h24V5a2 2 0 0 0-2-2z"/><path fill="#FFF" d="M22 3H2C.897 3 0 3.897 0 5v.25c0-1.103.897-2 2-2h20c1.103 0 2 .897 2 2V5c0-1.103-.897-2-2-2z" opacity=".2"/><path fill="#010101" d="M22 20.75H2c-1.103 0-2-.897-2-2V19c0 1.103.897 2 2 2h20c1.103 0 2-.897 2-2v-.25c0 1.103-.897 2-2 2z" opacity=".1"/><path fill="#FFF" d="M13 17h8v1h-8zM13 14h8v1h-8zM13 11h8v1h-8z"/><circle cx="7" cy="12" r="2" fill="#FFF"/><path fill="#FFF" d="M9.987 15.237C9.288 14.9 8.203 14.5 7 14.5s-2.288.4-2.987.737c-.625.3-1.013.9-1.013 1.566V18h8v-1.197c0-.665-.388-1.265-1.013-1.566z"/><circle cx="17" cy="5" r="1" fill="#0A70B9"/><path fill="#010101" d="M17 4.25a.99.99 0 0 1 .975.875C17.98 5.082 18 5.045 18 5a1 1 0 0 0-2 0c0 .044.02.082.025.125A.99.99 0 0 1 17 4.25z" opacity=".1"/><linearGradient id="a" x1="6.973" x2="21.55" y1="1.973" y2="16.55" gradientUnits="userSpaceOnUse"><stop offset="0" stop-color="#010101" stop-opacity=".1"/><stop offset="1" stop-color="#010101" stop-opacity="0"/></linearGradient><path fill="url(#a)" d="M22 21c1.103 0 2-.897 2-2V7H0l14 14h8z"/><circle cx="7" cy="5" r="1" fill="#0A70B9"/><path fill="#010101" d="M7 4.25a.99.99 0 0 1 .975.875C7.98 5.082 8 5.045 8 5a1 1 0 0 0-2 0c0 .044.02.082.025.125A.99.99 0 0 1 7 4.25z" opacity=".1"/><linearGradient id="b" x1="-.708" x2="24.708" y1="6.074" y2="17.925" gradientUnits="userSpaceOnUse"><stop offset="0" stop-color="#FFF" stop-opacity=".2"/><stop offset="1" stop-color="#FFF" stop-opacity="0"/></linearGradient><path fill="url(#b)" d="M22 3H2a2 2 0 0 0-2 2v14c0 1.103.897 2 2 2h20c1.103 0 2-.897 2-2V5a2 2 0 0 0-2-2z"/></svg>