<svg xmlns="http://www.w3.org/2000/svg" data-name="Layer 1" viewBox="0 0 128 128"><path d="M118,24H10A10.01177,10.01177,0,0,0,0,34V94a10.01177,10.01177,0,0,0,10,10H118a10.01177,10.01177,0,0,0,10-10V34A10.01177,10.01177,0,0,0,118,24ZM17,37H40.98889a35.81008,35.81008,0,0,0-3.99854,4H17a2,2,0,0,1,0-4Zm0,10H32.844a35.36015,35.36015,0,0,0-1.86792,4H17a2,2,0,0,1,0-4Zm0,10H29.19641a35.40208,35.40208,0,0,0-.56049,4H17a2,2,0,0,1,0-4Zm0,10H28.63593a35.40208,35.40208,0,0,0,.56049,4H17a2,2,0,0,1,0-4Zm0,10H30.97607A35.36015,35.36015,0,0,0,32.844,81H17a2,2,0,0,1,0-4Zm0,14a2,2,0,0,1,0-4H36.99036a35.81008,35.81008,0,0,0,3.99854,4Zm47,4.5A31.5,31.5,0,1,1,95.5,64,31.5357,31.5357,0,0,1,64,95.5ZM111,91H87.01111a35.81008,35.81008,0,0,0,3.99854-4H111a2,2,0,0,1,0,4Zm0-10H95.156a35.36015,35.36015,0,0,0,1.86792-4H111a2,2,0,0,1,0,4Zm0-10H98.80359a35.40208,35.40208,0,0,0,.56049-4H111a2,2,0,0,1,0,4Zm0-10H99.36407a35.40208,35.40208,0,0,0-.56049-4H111a2,2,0,0,1,0,4Zm0-10H97.02393A35.36015,35.36015,0,0,0,95.156,47H111a2,2,0,0,1,0,4Zm0-10H91.00964a35.81008,35.81008,0,0,0-3.99854-4H111a2,2,0,0,1,0,4Z"/><path d="M73.13373 61.2373a13.04532 13.04532 0 0 1-3.91565 2.66089A16.61381 16.61381 0 0 1 80.02148 77.29492 2.00036 2.00036 0 0 0 81.99707 79a2.04705 2.04705 0 0 0 .29785-.02148 2.00078 2.00078 0 0 0 1.68359-2.27344A20.73733 20.73733 0 0 0 73.13373 61.2373zM44.02148 76.70508a2.00038 2.00038 0 0 0 3.957.58984A16.61387 16.61387 0 0 1 58.782 63.89819a13.0456 13.0456 0 0 1-3.91571-2.66089A20.73733 20.73733 0 0 0 44.02148 76.70508zM73 52a9 9 0 1 0-13.79559 7.60266h.00006a8.97 8.97 0 0 0 1.07263.58142l.0235.01135a8.92357 8.92357 0 0 0 1.14734.4306c.01971.00586.04.00964.05975.01538a8.9189 8.9189 0 0 0 1.04816.23163c.09.01483.1795.0293.27045.04138a8.09213 8.09213 0 0 0 2.34741 0c.09094-.01208.18042-.02655.27045-.04138a8.9189 8.9189 0 0 0 1.04816-.23163c.01971-.00574.04-.00952.05975-.01538a8.9241 8.9241 0 0 0 1.14758-.43073l.02289-.011a8.976 8.976 0 0 0 1.073-.5816h.00006A8.99312 8.99312 0 0 0 73 52z"/></svg>