<svg xmlns="http://www.w3.org/2000/svg" data-name="Layer 1" viewBox="0 0 128 128"><path d="M29,58a5.95577,5.95577,0,0,0-6,5.89648v3.20605a6.00089,6.00089,0,0,0,12,0V63.89648A5.95577,5.95577,0,0,0,29,58Z"/><path d="M122,22H6a6.00476,6.00476,0,0,0-6,6v72a6.00476,6.00476,0,0,0,6,6H122a6.00476,6.00476,0,0,0,6-6V28A6.00476,6.00476,0,0,0,122,22ZM13,36a2.00587,2.00587,0,0,1,2-2h98a2.00587,2.00587,0,0,1,2,2v6a2.00591,2.00591,0,0,1-2,2H15a2.00591,2.00591,0,0,1-2-2ZM29,96H13a2,2,0,0,1,0-4H29a2,2,0,0,1,0,4ZM45,82a2.00591,2.00591,0,0,1-2,2H39.99951V76.833a4.63544,4.63544,0,0,0-2.08984-4.28418c-.14-.08716-.28137-.163-.42261-.23749a10.01048,10.01048,0,0,1-3.01318,3.06421l.0188.00726a7.38737,7.38737,0,0,1,1.30273.5625c.12158.0752.20947.12988.2041.874V84H22V76.80469c-.00537-.72949.08252-.78418.20313-.85937a7.4314,7.4314,0,0,1,1.30518-.56348l.01727-.00665a10.01126,10.01126,0,0,1-3.01251-3.06366c-.1416.07471-.28333.15088-.42371.23828A4.62407,4.62407,0,0,0,18,76.81934V84H15a2.00591,2.00591,0,0,1-2-2V54a2.00587,2.00587,0,0,1,2-2H43a2.00587,2.00587,0,0,1,2,2Zm44,4H57a2,2,0,0,1,0-4H89a2,2,0,0,1,0,4Zm0-8H57a2,2,0,0,1,0-4H89a2,2,0,0,1,0,4Zm0-8H57a2,2,0,0,1,0-4H89a2,2,0,0,1,0,4Zm26,26h-4.75a2,2,0,0,1,0-4H115a2,2,0,0,1,0,4Zm0-34H57a2,2,0,0,1,0-4h58a2,2,0,0,1,0,4Zm0-8H57a2,2,0,0,1,0-4h58a2,2,0,0,1,0,4Z"/></svg>