<svg width="18" height="18" viewBox="0 0 18 18" fill="none" xmlns="http://www.w3.org/2000/svg">
<g clip-path="url(#clip0_130_1728)">
<path d="M15.8131 1.40006C15.8118 1.10743 15.5735 0.871258 15.2809 0.872564C14.9883 0.87387 14.7521 1.11215 14.7534 1.40479L14.7597 2.80766C14.7621 3.35022 14.763 3.72378 14.736 4.00882C13.3497 2.515 11.3679 1.57904 9.16794 1.57904C4.97351 1.57904 1.57324 4.97931 1.57324 9.17374C1.57324 9.46638 1.81047 9.70361 2.10311 9.70361C2.39574 9.70361 2.63297 9.46638 2.63297 9.17374C2.63297 5.56458 5.55878 2.63877 9.16794 2.63877C11.1104 2.63877 12.8545 3.48563 14.0522 4.83202C14.0174 4.83752 13.9797 4.84254 13.9386 4.84703C13.648 4.87876 13.2639 4.87785 12.692 4.8753L11.2892 4.86904C10.9965 4.86773 10.7582 5.1039 10.7569 5.39653C10.7556 5.68917 10.9918 5.92745 11.2844 5.92875L12.7179 5.93515C13.2512 5.93754 13.696 5.93954 14.0536 5.90049C14.4287 5.85953 14.7744 5.76797 15.0747 5.53556C15.204 5.43556 15.3199 5.31958 15.4199 5.19037C15.6523 4.89006 15.7439 4.54435 15.7849 4.16926C15.8239 3.81165 15.8219 3.36687 15.8195 2.83357L15.8131 1.40006Z" fill="#2D264B"/>
<path d="M16.7626 9.17374C16.7626 8.88111 16.5254 8.64388 16.2328 8.64388C15.9401 8.64388 15.7029 8.88111 15.7029 9.17374C15.7029 12.7829 12.7771 15.7087 9.16794 15.7087C7.19778 15.7087 5.43166 14.8375 4.23273 13.4575C4.26554 13.4525 4.30095 13.4478 4.33926 13.4437C4.62987 13.4119 5.01397 13.4128 5.58581 13.4154L6.98869 13.4216C7.28132 13.4229 7.51961 13.1868 7.52091 12.8941C7.52222 12.6015 7.28605 12.3632 6.99342 12.3619L5.55995 12.3555C5.02665 12.3531 4.58183 12.3511 4.22422 12.3902C3.84912 12.4312 3.50342 12.5227 3.20311 12.7551C3.07389 12.8551 2.95791 12.9711 2.85792 13.1003C2.62551 13.4006 2.53395 13.7463 2.49299 14.1214C2.45393 14.479 2.45593 14.9238 2.45832 15.4571L2.46472 16.8906C2.46603 17.1833 2.70431 17.4194 2.99694 17.4181C3.28957 17.4168 3.52574 17.1785 3.52443 16.8859L3.51818 15.483C3.51574 14.9368 3.5148 14.5618 3.54238 14.276C4.93112 15.8063 6.93743 16.7684 9.16794 16.7684C13.3624 16.7684 16.7626 13.3682 16.7626 9.17374Z" fill="#2D264B"/>
</g>
<defs>
<clipPath id="clip0_130_1728">
<rect width="16.9556" height="16.9556" fill="white" transform="translate(0.689941 0.697266)"/>
</clipPath>
</defs>
</svg>
