<svg xmlns="http://www.w3.org/2000/svg" id="Layer_1" x="0" y="0" version="1.1" viewBox="0 0 64 64" xml:space="preserve"><path fill="#007bbf" d="M26.9 9.4c-.7 0-1.2.5-1.2 1.1 0 .3.1.6.3.8.2.2.5.3.9.3H37c.5 0 .8-.2 1-.4.2-.2.3-.5.3-.8 0-.7-.5-1.1-1.2-1.1h-4.2l-6 .1M26.9 17.6H37c.5 0 .8-.2 1-.4.2-.2.3-.5.3-.8 0-.7-.5-1.1-1.2-1.1H26.6c-.6.1-.9.7-.9 1.2.1.7.5 1.1 1.2 1.1z"/><path fill="#007bbf" d="M19.9 19.5h2.5V4.4c.5.4.9.8 1.4 1.1.8.7 1.2.7 2 0 .9-.7 1.7-1.4 2.6-2.1.9.7 1.7 1.4 2.6 2.1.8.7 1.3.7 2.1 0s1.7-1.4 2.6-2.1c.9.7 1.7 1.4 2.6 2.1s1.3.7 2.2 0c.4-.3.9-.7 1.4-1.1v15.1h2.3V2.4c0-.6-.1-1.1-.8-1.4-.7-.3-1.1.1-1.6.5-.8.7-1.7 1.4-2.5 2.1-.9-.8-1.8-1.5-2.6-2.2-.7-.6-1.2-.6-2 0-.9.7-1.8 1.5-2.7 2.2-.9-.7-1.7-1.4-2.5-2.1-.9-.7-1.3-.7-2.2 0-.9.7-1.7 1.4-2.6 2.1-1-.8-1.9-1.6-2.8-2.3-.3-.2-1-.3-1.3-.2-.4.1-.5.6-.7 1-.1.1 0 .3 0 .4v17z"/><path fill="#2d3e50" d="M52.6 14.5h-4.8v5.1c0 1.7-1.4 3.1-3.1 3.1H19.2c-1.7 0-3.1-1.4-3.1-3.1v-5.1h-4.8c-2.3 0-4.2 1.9-4.2 4.2l2.1 40.1c0 2.3 1.9 4.2 4.2 4.2h37c2.3 0 4.2-1.9 4.2-4.2l2.1-40.1c.2-2.3-1.7-4.2-4.1-4.2zM25.1 57.9l-3.5-3.5-3.5 3.6-3-3 3.6-3.5-3.6-3.6L18 45l3.5 3.5 3.6-3.6 3 3-3.5 3.5 3.6 3.6-3.1 2.9zm3.6-21.2h-5.1v5.1h-4.2v-5h-5.1v-1-3.2h5.1v-.1-1.1-3.1V27.4h4.1v5.1h5.1v4.2zm20.6 20.4H35.6v-4h13.8v4zm.3-7H35.3V46h14.3v4.1zm.1-13.4H35.3v-4.2H49.7v4.2z"/></svg>