<svg xmlns="http://www.w3.org/2000/svg" viewBox="0 0 25 25"><path fill="#2b3344" d="M6,14.5v-4A1.5,1.5,0,0,1,7.5,9H17V5a2.006,2.006,0,0,0-2-2H6A2.006,2.006,0,0,0,4,5V20a2.006,2.006,0,0,0,2,2h9a2.006,2.006,0,0,0,2-2V16H7.5A1.5,1.5,0,0,1,6,14.5ZM12.25,4a.747.747,0,0,1-.75.74h-2A.747.747,0,0,1,8.75,4Zm8.25,6H7.5a.5.5,0,0,0-.5.5v4a.5.5,0,0,0,.5.5h13a.5.5,0,0,0,.5-.5v-4A.5.5,0,0,0,20.5,10Zm-9.94,2.85a.5.5,0,0,1,0,.71.5.5,0,0,1-.35.15.508.508,0,0,1-.36-.15l-.35-.35-.35.35a.508.508,0,0,1-.36.15.5.5,0,0,1-.35-.15.5.5,0,0,1,0-.71l.35-.35-.35-.35a.5.5,0,0,1,.71-.71l.35.35.35-.35a.5.5,0,0,1,.71.71l-.35.35Zm3,0a.5.5,0,0,1,0,.71.5.5,0,0,1-.35.15.508.508,0,0,1-.36-.15l-.35-.35-.35.35a.508.508,0,0,1-.36.15.5.5,0,0,1-.35-.15.5.5,0,0,1,0-.71l.35-.35-.35-.35a.5.5,0,0,1,.71-.71l.35.35.35-.35a.5.5,0,0,1,.71.71l-.35.35Zm3,0a.5.5,0,0,1,0,.71.5.5,0,0,1-.35.15.508.508,0,0,1-.36-.15l-.35-.35-.35.35a.508.508,0,0,1-.36.15.5.5,0,0,1-.35-.15.5.5,0,0,1,0-.71l.35-.35-.35-.35a.5.5,0,0,1,.71-.71l.35.35.35-.35a.5.5,0,0,1,.71.71l-.35.35Zm3,0a.5.5,0,0,1,0,.71.5.5,0,0,1-.35.15.508.508,0,0,1-.36-.15l-.35-.35-.35.35a.508.508,0,0,1-.36.15.5.5,0,0,1-.35-.15.5.5,0,0,1,0-.71l.35-.35-.35-.35a.5.5,0,0,1,.71-.71l.35.35.35-.35a.5.5,0,0,1,.71.71l-.35.35Z"/></svg>